<svg width="24" height="16" viewBox="0 0 24 16" fill="none" xmlns="http://www.w3.org/2000/svg">
<path d="M12.0405 15.1289C18.7476 15.1289 23.3794 9.7085 23.3794 8.01514C23.3794 6.31348 18.7393 0.901367 12.0405 0.901367C5.4248 0.901367 0.693359 6.31348 0.693359 8.01514C0.693359 9.7085 5.4165 15.1289 12.0405 15.1289ZM12.0405 13.8174C6.57031 13.8174 2.146 9.18555 2.146 8.01514C2.146 7.02734 6.57031 2.21289 12.0405 2.21289C17.4858 2.21289 21.9268 7.02734 21.9268 8.01514C21.9268 9.18555 17.4858 13.8174 12.0405 13.8174ZM12.0405 12.6636C14.6221 12.6636 16.6973 10.5469 16.6973 8.01514C16.6973 5.41699 14.6221 3.3667 12.0405 3.3667C9.44238 3.3667 7.35889 5.41699 7.36719 8.01514C7.38379 10.5469 9.44238 12.6636 12.0405 12.6636ZM12.0405 9.55908C11.1772 9.55908 10.48 8.86182 10.48 8.01514C10.48 7.16016 11.1772 6.47119 12.0405 6.47119C12.8955 6.47119 13.5928 7.16016 13.5928 8.01514C13.5928 8.86182 12.8955 9.55908 12.0405 9.55908Z" fill="#3C3C43" fill-opacity="0.3"/>
</svg>
